<mxfile host="app.diagrams.net" agent="Mozilla/5.0 (Windows NT 10.0; Win64; x64) AppleWebKit/537.36 (KHTML, like Gecko) Chrome/137.0.0.0 Safari/537.36" version="27.1.4">
  <diagram name="第 1 页" id="PxycaO0lB3qMbI04a0a6">
    <mxGraphModel dx="1869" dy="570" grid="1" gridSize="10" guides="1" tooltips="1" connect="1" arrows="1" fold="1" page="1" pageScale="1" pageWidth="827" pageHeight="1169" math="0" shadow="0">
      <root>
        <mxCell id="0" />
        <mxCell id="1" parent="0" />
        <mxCell id="spFuP-tE8OkHs6iBAqPz-2" value="多轮对话输入" style="rounded=0;whiteSpace=wrap;html=1;fillColor=#E6D0DE;movable=1;resizable=1;rotatable=1;deletable=1;editable=1;locked=0;connectable=1;" parent="1" vertex="1">
          <mxGeometry x="-80" y="250" width="120" height="60" as="geometry" />
        </mxCell>
        <mxCell id="spFuP-tE8OkHs6iBAqPz-3" value="" style="endArrow=classic;html=1;rounded=0;strokeWidth=2;entryX=0;entryY=0.5;entryDx=0;entryDy=0;exitX=1;exitY=0.5;exitDx=0;exitDy=0;" parent="1" source="spFuP-tE8OkHs6iBAqPz-2" target="spFuP-tE8OkHs6iBAqPz-4" edge="1">
          <mxGeometry width="50" height="50" relative="1" as="geometry">
            <mxPoint x="40" y="280" as="sourcePoint" />
            <mxPoint x="120" y="280" as="targetPoint" />
          </mxGeometry>
        </mxCell>
        <mxCell id="spFuP-tE8OkHs6iBAqPz-4" value="轻量化检索器" style="rounded=0;whiteSpace=wrap;html=1;fillColor=#D5E8D4;movable=1;resizable=1;rotatable=1;deletable=1;editable=1;locked=0;connectable=1;" parent="1" vertex="1">
          <mxGeometry x="80" y="250" width="120" height="60" as="geometry" />
        </mxCell>
        <mxCell id="spFuP-tE8OkHs6iBAqPz-7" value="" style="rounded=0;whiteSpace=wrap;html=1;fillColor=#D5E8D4;movable=1;resizable=1;rotatable=1;deletable=1;editable=1;locked=0;connectable=1;" parent="1" vertex="1">
          <mxGeometry x="-60" y="60" width="240" height="160" as="geometry" />
        </mxCell>
        <mxCell id="spFuP-tE8OkHs6iBAqPz-8" value="&lt;font style=&quot;color: rgb(255, 0, 0);&quot;&gt;&lt;b&gt;外部&lt;/b&gt;&lt;/font&gt;&lt;div&gt;&lt;font style=&quot;color: rgb(255, 0, 0);&quot;&gt;&lt;b&gt;知识库&lt;/b&gt;&lt;/font&gt;&lt;/div&gt;" style="text;strokeColor=none;align=center;fillColor=none;html=1;verticalAlign=middle;whiteSpace=wrap;rounded=0;" parent="1" vertex="1">
          <mxGeometry x="-60" y="110" width="40" height="60" as="geometry" />
        </mxCell>
        <mxCell id="spFuP-tE8OkHs6iBAqPz-9" value="多模态数据" style="rounded=1;whiteSpace=wrap;html=1;fillColor=#1ba1e2;fontColor=#ffffff;strokeColor=#006EAF;" parent="1" vertex="1">
          <mxGeometry x="30" y="70" width="100" height="50" as="geometry" />
        </mxCell>
        <mxCell id="spFuP-tE8OkHs6iBAqPz-10" value="" style="endArrow=classic;html=1;rounded=0;" parent="1" edge="1">
          <mxGeometry width="50" height="50" relative="1" as="geometry">
            <mxPoint x="100" y="120" as="sourcePoint" />
            <mxPoint x="120" y="160" as="targetPoint" />
          </mxGeometry>
        </mxCell>
        <mxCell id="spFuP-tE8OkHs6iBAqPz-11" value="图像" style="rounded=1;whiteSpace=wrap;html=1;fillColor=#1ba1e2;fontColor=#ffffff;strokeColor=#006EAF;" parent="1" vertex="1">
          <mxGeometry x="100" y="160" width="50" height="40" as="geometry" />
        </mxCell>
        <mxCell id="spFuP-tE8OkHs6iBAqPz-12" value="文本" style="rounded=1;whiteSpace=wrap;html=1;fillColor=#1ba1e2;fontColor=#ffffff;strokeColor=#006EAF;" parent="1" vertex="1">
          <mxGeometry x="10" y="160" width="50" height="40" as="geometry" />
        </mxCell>
        <mxCell id="spFuP-tE8OkHs6iBAqPz-13" value="" style="endArrow=classic;html=1;rounded=0;entryX=0.5;entryY=0;entryDx=0;entryDy=0;" parent="1" target="spFuP-tE8OkHs6iBAqPz-12" edge="1">
          <mxGeometry width="50" height="50" relative="1" as="geometry">
            <mxPoint x="60" y="120" as="sourcePoint" />
            <mxPoint x="30" y="160" as="targetPoint" />
          </mxGeometry>
        </mxCell>
        <mxCell id="spFuP-tE8OkHs6iBAqPz-20" value="" style="endArrow=classic;html=1;rounded=0;strokeWidth=2;exitX=1;exitY=0.5;exitDx=0;exitDy=0;" parent="1" edge="1">
          <mxGeometry width="50" height="50" relative="1" as="geometry">
            <mxPoint x="140" y="310" as="sourcePoint" />
            <mxPoint x="140" y="350" as="targetPoint" />
          </mxGeometry>
        </mxCell>
        <mxCell id="spFuP-tE8OkHs6iBAqPz-22" value="" style="rounded=0;whiteSpace=wrap;html=1;fillColor=#D5E8D4;movable=1;resizable=1;rotatable=1;deletable=1;editable=1;locked=0;connectable=1;" parent="1" vertex="1">
          <mxGeometry x="-90" y="350" width="310" height="120" as="geometry" />
        </mxCell>
        <mxCell id="spFuP-tE8OkHs6iBAqPz-23" value="动态记忆矩阵" style="rounded=1;whiteSpace=wrap;html=1;fillColor=#1ba1e2;fontColor=#ffffff;strokeColor=#006EAF;" parent="1" vertex="1">
          <mxGeometry x="-80" y="370" width="30" height="80" as="geometry" />
        </mxCell>
        <mxCell id="spFuP-tE8OkHs6iBAqPz-25" value="" style="endArrow=classic;html=1;rounded=0;" parent="1" edge="1">
          <mxGeometry width="50" height="50" relative="1" as="geometry">
            <mxPoint x="-50" y="410" as="sourcePoint" />
            <mxPoint x="-20" y="410" as="targetPoint" />
          </mxGeometry>
        </mxCell>
        <mxCell id="spFuP-tE8OkHs6iBAqPz-21" value="&lt;font color=&quot;#ff0000&quot;&gt;&lt;b&gt;动态记忆矩阵模块&lt;/b&gt;&lt;/font&gt;" style="text;strokeColor=none;align=center;fillColor=none;html=1;verticalAlign=middle;whiteSpace=wrap;rounded=0;movable=1;resizable=1;rotatable=1;deletable=1;editable=1;locked=0;connectable=1;" parent="1" vertex="1">
          <mxGeometry x="10" y="350" width="100" height="15" as="geometry" />
        </mxCell>
        <mxCell id="spFuP-tE8OkHs6iBAqPz-26" value="键值对存储" style="rounded=1;whiteSpace=wrap;html=1;fillColor=#647687;fontColor=#ffffff;strokeColor=#314354;" parent="1" vertex="1">
          <mxGeometry x="-20" y="370" width="40" height="80" as="geometry" />
        </mxCell>
        <mxCell id="spFuP-tE8OkHs6iBAqPz-27" value="实体/意图/约束/向量" style="rounded=1;whiteSpace=wrap;html=1;fillColor=#647687;fontColor=#ffffff;strokeColor=#314354;movable=0;resizable=0;rotatable=0;deletable=0;editable=0;locked=1;connectable=0;" parent="1" vertex="1">
          <mxGeometry x="50" y="370" width="40" height="80" as="geometry" />
        </mxCell>
        <mxCell id="spFuP-tE8OkHs6iBAqPz-28" value="" style="endArrow=classic;html=1;rounded=0;" parent="1" edge="1">
          <mxGeometry width="50" height="50" relative="1" as="geometry">
            <mxPoint x="20" y="409.5" as="sourcePoint" />
            <mxPoint x="50" y="409.5" as="targetPoint" />
          </mxGeometry>
        </mxCell>
        <mxCell id="spFuP-tE8OkHs6iBAqPz-30" value="" style="endArrow=classic;html=1;rounded=0;" parent="1" edge="1">
          <mxGeometry width="50" height="50" relative="1" as="geometry">
            <mxPoint x="90" y="409.5" as="sourcePoint" />
            <mxPoint x="120" y="409.5" as="targetPoint" />
          </mxGeometry>
        </mxCell>
        <mxCell id="spFuP-tE8OkHs6iBAqPz-31" value="增量更新" style="rounded=1;whiteSpace=wrap;html=1;fillColor=#647687;fontColor=#ffffff;strokeColor=#314354;movable=0;resizable=0;rotatable=0;deletable=0;editable=0;locked=1;connectable=0;" parent="1" vertex="1">
          <mxGeometry x="120" y="370" width="30" height="80" as="geometry" />
        </mxCell>
        <mxCell id="spFuP-tE8OkHs6iBAqPz-32" value="" style="endArrow=classic;html=1;rounded=0;" parent="1" edge="1">
          <mxGeometry width="50" height="50" relative="1" as="geometry">
            <mxPoint x="150" y="409.5" as="sourcePoint" />
            <mxPoint x="180" y="409.5" as="targetPoint" />
          </mxGeometry>
        </mxCell>
        <mxCell id="spFuP-tE8OkHs6iBAqPz-33" value="遗忘机制" style="rounded=1;whiteSpace=wrap;html=1;fillColor=#647687;fontColor=#ffffff;strokeColor=#314354;movable=0;resizable=0;rotatable=0;deletable=0;editable=0;locked=1;connectable=0;" parent="1" vertex="1">
          <mxGeometry x="180" y="370" width="30" height="80" as="geometry" />
        </mxCell>
        <mxCell id="spFuP-tE8OkHs6iBAqPz-36" value="" style="rounded=0;whiteSpace=wrap;html=1;fillColor=#D5E8D4;movable=1;resizable=1;rotatable=1;deletable=1;editable=1;locked=0;connectable=1;" parent="1" vertex="1">
          <mxGeometry x="200" y="60" width="550" height="160" as="geometry" />
        </mxCell>
        <mxCell id="spFuP-tE8OkHs6iBAqPz-37" value="层级因果图构建" style="rounded=1;whiteSpace=wrap;html=1;fillColor=#647687;fontColor=#ffffff;strokeColor=#314354;" parent="1" vertex="1">
          <mxGeometry x="430" y="80" width="100" height="30" as="geometry" />
        </mxCell>
        <mxCell id="spFuP-tE8OkHs6iBAqPz-38" value="&lt;font color=&quot;#ff0000&quot;&gt;&lt;b&gt;因果图推理引擎&lt;/b&gt;&lt;/font&gt;" style="text;strokeColor=none;align=center;fillColor=none;html=1;verticalAlign=middle;whiteSpace=wrap;rounded=0;movable=0;resizable=0;rotatable=0;deletable=0;editable=0;locked=1;connectable=0;" parent="1" vertex="1">
          <mxGeometry x="430" y="60" width="100" height="15" as="geometry" />
        </mxCell>
        <mxCell id="spFuP-tE8OkHs6iBAqPz-39" value="" style="endArrow=classic;html=1;rounded=0;exitX=0;exitY=0.5;exitDx=0;exitDy=0;entryX=1;entryY=0;entryDx=0;entryDy=0;" parent="1" source="spFuP-tE8OkHs6iBAqPz-37" target="spFuP-tE8OkHs6iBAqPz-44" edge="1">
          <mxGeometry width="50" height="50" relative="1" as="geometry">
            <mxPoint x="430" y="110" as="sourcePoint" />
            <mxPoint x="350" y="132.5" as="targetPoint" />
          </mxGeometry>
        </mxCell>
        <mxCell id="spFuP-tE8OkHs6iBAqPz-43" value="" style="endArrow=classic;startArrow=classic;html=1;rounded=0;strokeWidth=2;" parent="1" edge="1">
          <mxGeometry width="50" height="50" relative="1" as="geometry">
            <mxPoint x="139.5" y="250" as="sourcePoint" />
            <mxPoint x="139.5" y="220" as="targetPoint" />
          </mxGeometry>
        </mxCell>
        <mxCell id="spFuP-tE8OkHs6iBAqPz-44" value="图节点定义" style="rounded=1;whiteSpace=wrap;html=1;fillColor=#647687;fontColor=#ffffff;strokeColor=#314354;" parent="1" vertex="1">
          <mxGeometry x="260" y="130" width="70" height="30" as="geometry" />
        </mxCell>
        <mxCell id="spFuP-tE8OkHs6iBAqPz-45" value="" style="endArrow=classic;html=1;rounded=0;" parent="1" edge="1">
          <mxGeometry width="50" height="50" relative="1" as="geometry">
            <mxPoint x="260" y="160" as="sourcePoint" />
            <mxPoint x="240" y="180" as="targetPoint" />
          </mxGeometry>
        </mxCell>
        <mxCell id="spFuP-tE8OkHs6iBAqPz-46" value="实体节点" style="rounded=1;whiteSpace=wrap;html=1;fillColor=#647687;fontColor=#ffffff;strokeColor=#314354;" parent="1" vertex="1">
          <mxGeometry x="210" y="180" width="50" height="30" as="geometry" />
        </mxCell>
        <mxCell id="spFuP-tE8OkHs6iBAqPz-51" value="意图节点" style="rounded=1;whiteSpace=wrap;html=1;fillColor=#647687;fontColor=#ffffff;strokeColor=#314354;" parent="1" vertex="1">
          <mxGeometry x="270" y="180" width="50" height="30" as="geometry" />
        </mxCell>
        <mxCell id="spFuP-tE8OkHs6iBAqPz-52" value="" style="endArrow=classic;html=1;rounded=0;" parent="1" edge="1">
          <mxGeometry width="50" height="50" relative="1" as="geometry">
            <mxPoint x="294.5" y="160" as="sourcePoint" />
            <mxPoint x="295" y="180" as="targetPoint" />
          </mxGeometry>
        </mxCell>
        <mxCell id="spFuP-tE8OkHs6iBAqPz-53" value="意图节点" style="rounded=1;whiteSpace=wrap;html=1;fillColor=#647687;fontColor=#ffffff;strokeColor=#314354;" parent="1" vertex="1">
          <mxGeometry x="330" y="180" width="50" height="30" as="geometry" />
        </mxCell>
        <mxCell id="spFuP-tE8OkHs6iBAqPz-54" value="" style="endArrow=classic;html=1;rounded=0;" parent="1" edge="1">
          <mxGeometry width="50" height="50" relative="1" as="geometry">
            <mxPoint x="330" y="160" as="sourcePoint" />
            <mxPoint x="360" y="180" as="targetPoint" />
          </mxGeometry>
        </mxCell>
        <mxCell id="spFuP-tE8OkHs6iBAqPz-55" value="" style="endArrow=classic;html=1;rounded=0;" parent="1" edge="1">
          <mxGeometry width="50" height="50" relative="1" as="geometry">
            <mxPoint x="480" y="110" as="sourcePoint" />
            <mxPoint x="480" y="130" as="targetPoint" />
          </mxGeometry>
        </mxCell>
        <mxCell id="spFuP-tE8OkHs6iBAqPz-57" value="图边定义" style="rounded=1;whiteSpace=wrap;html=1;fillColor=#647687;fontColor=#ffffff;strokeColor=#314354;" parent="1" vertex="1">
          <mxGeometry x="445" y="130" width="70" height="30" as="geometry" />
        </mxCell>
        <mxCell id="spFuP-tE8OkHs6iBAqPz-58" value="" style="endArrow=classic;html=1;rounded=0;" parent="1" edge="1">
          <mxGeometry width="50" height="50" relative="1" as="geometry">
            <mxPoint x="445" y="160" as="sourcePoint" />
            <mxPoint x="425" y="180" as="targetPoint" />
          </mxGeometry>
        </mxCell>
        <mxCell id="spFuP-tE8OkHs6iBAqPz-59" value="因果边" style="rounded=1;whiteSpace=wrap;html=1;fillColor=#647687;fontColor=#ffffff;strokeColor=#314354;" parent="1" vertex="1">
          <mxGeometry x="395" y="180" width="50" height="30" as="geometry" />
        </mxCell>
        <mxCell id="spFuP-tE8OkHs6iBAqPz-60" value="依赖边" style="rounded=1;whiteSpace=wrap;html=1;fillColor=#647687;fontColor=#ffffff;strokeColor=#314354;" parent="1" vertex="1">
          <mxGeometry x="455" y="180" width="50" height="30" as="geometry" />
        </mxCell>
        <mxCell id="spFuP-tE8OkHs6iBAqPz-61" value="" style="endArrow=classic;html=1;rounded=0;" parent="1" edge="1">
          <mxGeometry width="50" height="50" relative="1" as="geometry">
            <mxPoint x="479.5" y="160" as="sourcePoint" />
            <mxPoint x="480" y="180" as="targetPoint" />
          </mxGeometry>
        </mxCell>
        <mxCell id="spFuP-tE8OkHs6iBAqPz-62" value="约束边" style="rounded=1;whiteSpace=wrap;html=1;fillColor=#647687;fontColor=#ffffff;strokeColor=#314354;" parent="1" vertex="1">
          <mxGeometry x="515" y="180" width="50" height="30" as="geometry" />
        </mxCell>
        <mxCell id="spFuP-tE8OkHs6iBAqPz-63" value="" style="endArrow=classic;html=1;rounded=0;" parent="1" edge="1">
          <mxGeometry width="50" height="50" relative="1" as="geometry">
            <mxPoint x="515" y="160" as="sourcePoint" />
            <mxPoint x="545" y="180" as="targetPoint" />
          </mxGeometry>
        </mxCell>
        <mxCell id="spFuP-tE8OkHs6iBAqPz-64" value="图节点定义" style="rounded=1;whiteSpace=wrap;html=1;fillColor=#647687;fontColor=#ffffff;strokeColor=#314354;" parent="1" vertex="1">
          <mxGeometry x="630" y="130" width="70" height="30" as="geometry" />
        </mxCell>
        <mxCell id="spFuP-tE8OkHs6iBAqPz-65" value="" style="endArrow=classic;html=1;rounded=0;exitX=0;exitY=1;exitDx=0;exitDy=0;entryX=0.5;entryY=0;entryDx=0;entryDy=0;" parent="1" source="spFuP-tE8OkHs6iBAqPz-64" target="spFuP-tE8OkHs6iBAqPz-66" edge="1">
          <mxGeometry width="50" height="50" relative="1" as="geometry">
            <mxPoint x="630" y="160" as="sourcePoint" />
            <mxPoint x="610" y="180" as="targetPoint" />
          </mxGeometry>
        </mxCell>
        <mxCell id="spFuP-tE8OkHs6iBAqPz-66" value="多头注意力" style="rounded=1;whiteSpace=wrap;html=1;fillColor=#647687;fontColor=#ffffff;strokeColor=#314354;" parent="1" vertex="1">
          <mxGeometry x="590" y="180" width="70" height="30" as="geometry" />
        </mxCell>
        <mxCell id="spFuP-tE8OkHs6iBAqPz-69" value="因果正则化" style="rounded=1;whiteSpace=wrap;html=1;fillColor=#647687;fontColor=#ffffff;strokeColor=#314354;" parent="1" vertex="1">
          <mxGeometry x="670" y="180" width="70" height="30" as="geometry" />
        </mxCell>
        <mxCell id="spFuP-tE8OkHs6iBAqPz-70" value="" style="endArrow=classic;html=1;rounded=0;exitX=1;exitY=1;exitDx=0;exitDy=0;entryX=0.5;entryY=0;entryDx=0;entryDy=0;" parent="1" source="spFuP-tE8OkHs6iBAqPz-64" target="spFuP-tE8OkHs6iBAqPz-69" edge="1">
          <mxGeometry width="50" height="50" relative="1" as="geometry">
            <mxPoint x="700" y="160" as="sourcePoint" />
            <mxPoint x="730" y="180" as="targetPoint" />
          </mxGeometry>
        </mxCell>
        <mxCell id="spFuP-tE8OkHs6iBAqPz-71" value="" style="endArrow=classic;html=1;rounded=0;exitX=1;exitY=0.5;exitDx=0;exitDy=0;entryX=0;entryY=0;entryDx=0;entryDy=0;" parent="1" source="spFuP-tE8OkHs6iBAqPz-37" target="spFuP-tE8OkHs6iBAqPz-64" edge="1">
          <mxGeometry width="50" height="50" relative="1" as="geometry">
            <mxPoint x="670" y="90" as="sourcePoint" />
            <mxPoint x="570" y="125" as="targetPoint" />
          </mxGeometry>
        </mxCell>
        <mxCell id="spFuP-tE8OkHs6iBAqPz-75" value="" style="endArrow=classic;html=1;rounded=0;edgeStyle=orthogonalEdgeStyle;curved=1;exitX=0.5;exitY=0;exitDx=0;exitDy=0;entryX=0.5;entryY=0;entryDx=0;entryDy=0;strokeWidth=2;dashed=1;" parent="1" source="spFuP-tE8OkHs6iBAqPz-23" target="spFuP-tE8OkHs6iBAqPz-36" edge="1">
          <mxGeometry width="50" height="50" relative="1" as="geometry">
            <mxPoint x="-48" y="352" as="sourcePoint" />
            <mxPoint x="2" y="302" as="targetPoint" />
            <Array as="points">
              <mxPoint x="-155" y="370" />
              <mxPoint x="-155" y="15" />
              <mxPoint x="475" y="15" />
            </Array>
          </mxGeometry>
        </mxCell>
        <mxCell id="spFuP-tE8OkHs6iBAqPz-76" value="" style="endArrow=classic;html=1;rounded=0;edgeStyle=orthogonalEdgeStyle;curved=1;dashed=1;strokeWidth=2;exitX=1;exitY=0;exitDx=0;exitDy=0;entryX=1;entryY=0;entryDx=0;entryDy=0;" parent="1" source="spFuP-tE8OkHs6iBAqPz-37" target="spFuP-tE8OkHs6iBAqPz-78" edge="1">
          <mxGeometry width="50" height="50" relative="1" as="geometry">
            <mxPoint x="530" y="80" as="sourcePoint" />
            <mxPoint x="580" y="30" as="targetPoint" />
            <Array as="points">
              <mxPoint x="530" y="70" />
              <mxPoint x="800" y="70" />
              <mxPoint x="800" y="290" />
            </Array>
          </mxGeometry>
        </mxCell>
        <mxCell id="spFuP-tE8OkHs6iBAqPz-78" value="" style="rounded=0;whiteSpace=wrap;html=1;fillColor=#D5E8D4;movable=1;resizable=1;rotatable=1;deletable=1;editable=1;locked=0;connectable=1;" parent="1" vertex="1">
          <mxGeometry x="290" y="290" width="440" height="190" as="geometry" />
        </mxCell>
        <mxCell id="spFuP-tE8OkHs6iBAqPz-79" value="&lt;font color=&quot;#ff0000&quot;&gt;&lt;b&gt;可视化与输出&lt;/b&gt;&lt;/font&gt;" style="text;strokeColor=none;align=center;fillColor=none;html=1;verticalAlign=middle;whiteSpace=wrap;rounded=0;movable=1;resizable=1;rotatable=1;deletable=1;editable=1;locked=0;connectable=1;" parent="1" vertex="1">
          <mxGeometry x="460" y="290" width="100" height="15" as="geometry" />
        </mxCell>
        <mxCell id="spFuP-tE8OkHs6iBAqPz-81" value="结构化场景图生成" style="rounded=1;whiteSpace=wrap;html=1;fillColor=#647687;fontColor=#ffffff;strokeColor=#314354;" parent="1" vertex="1">
          <mxGeometry x="340" y="310" width="40" height="160" as="geometry" />
        </mxCell>
        <mxCell id="spFuP-tE8OkHs6iBAqPz-85" value="GraphViz渲染" style="rounded=1;whiteSpace=wrap;html=1;fillColor=#647687;fontColor=#ffffff;strokeColor=#314354;" parent="1" vertex="1">
          <mxGeometry x="430" y="320" width="90" height="45" as="geometry" />
        </mxCell>
        <mxCell id="spFuP-tE8OkHs6iBAqPz-86" value="响应生成&lt;div&gt;可视化&lt;/div&gt;" style="rounded=1;whiteSpace=wrap;html=1;fillColor=#647687;fontColor=#ffffff;strokeColor=#314354;" parent="1" vertex="1">
          <mxGeometry x="430" y="410" width="90" height="45" as="geometry" />
        </mxCell>
        <mxCell id="spFuP-tE8OkHs6iBAqPz-90" value="" style="endArrow=classic;html=1;rounded=0;" parent="1" edge="1">
          <mxGeometry width="50" height="50" relative="1" as="geometry">
            <mxPoint x="380" y="340" as="sourcePoint" />
            <mxPoint x="430" y="340" as="targetPoint" />
          </mxGeometry>
        </mxCell>
        <mxCell id="spFuP-tE8OkHs6iBAqPz-91" value="" style="endArrow=classic;html=1;rounded=0;" parent="1" edge="1">
          <mxGeometry width="50" height="50" relative="1" as="geometry">
            <mxPoint x="380" y="432" as="sourcePoint" />
            <mxPoint x="430" y="432" as="targetPoint" />
          </mxGeometry>
        </mxCell>
        <mxCell id="spFuP-tE8OkHs6iBAqPz-94" value="" style="endArrow=classic;html=1;rounded=0;" parent="1" edge="1">
          <mxGeometry width="50" height="50" relative="1" as="geometry">
            <mxPoint x="520" y="432" as="sourcePoint" />
            <mxPoint x="570" y="432" as="targetPoint" />
          </mxGeometry>
        </mxCell>
        <mxCell id="spFuP-tE8OkHs6iBAqPz-95" value="" style="endArrow=classic;html=1;rounded=0;" parent="1" edge="1">
          <mxGeometry width="50" height="50" relative="1" as="geometry">
            <mxPoint x="520" y="342" as="sourcePoint" />
            <mxPoint x="570" y="342" as="targetPoint" />
          </mxGeometry>
        </mxCell>
        <mxCell id="spFuP-tE8OkHs6iBAqPz-96" value="状态节点" style="rounded=1;whiteSpace=wrap;html=1;fillColor=#647687;fontColor=#ffffff;strokeColor=#314354;" parent="1" vertex="1">
          <mxGeometry x="570" y="320" width="90" height="45" as="geometry" />
        </mxCell>
        <mxCell id="spFuP-tE8OkHs6iBAqPz-97" value="用户响应" style="rounded=1;whiteSpace=wrap;html=1;fillColor=#647687;fontColor=#ffffff;strokeColor=#314354;" parent="1" vertex="1">
          <mxGeometry x="570" y="410" width="90" height="45" as="geometry" />
        </mxCell>
      </root>
    </mxGraphModel>
  </diagram>
</mxfile>
